<?xml version="1.0" encoding="UTF-8"?><svg id="b" xmlns="http://www.w3.org/2000/svg" viewBox="0 0 108 111.24"><g id="c"><path d="M107.1,61.33c-2.97-9.39-13.25-17.21-27.72-15.4,.2-5.71,.57-11.63,.9-16.95,.29-4.67,.58-9.14,.75-13.45,0-2.23,4.46-6.69,7.67-9.05l2.19-1.61-3.12-4.88-26.72,7.72,1.64,6.07,2.06-.17c.19,.06,.56,.18,1.22,.44-1.28,7.55-3.27,22.26-2.38,36.73-3.92,1.73-8.17,3.91-12.72,6.49-2.22-21.12-6.73-35.73-13.33-43.37-3.56-4.72-8.78-7.31-14.34-7.14C12.53,7.17,.94,17.91,.04,35.21c-.49,9.38,3.42,13.96,6.79,16.15,5.09,3.31,11.8,3.08,17.81,1.73v-11.92c-4.7,1.36-9.44,1.96-11.57,.58-1.59-1.04-1.68-4.17-1.58-5.95,.59-11.2,7.43-17.41,12.35-17.58,3.89,0,6.78,4.44,7.71,11.87,.24,1.88,.46,3.95,.66,6.21,.06,.62,.1,1.27,.16,1.92,0,0-.02,0-.03,.02,.19,3.01,.55,8.8,.74,12.19,0,0,.02,0,.02,0,.02,.52,.05,1.04,.06,1.58,0,.25,.02,.47,.02,.64v.04c.18,4.77,.3,9.97,.36,15.53-13.24,9.04-23.45,17.45-23.89,17.81l-4.41,3.65,11.98,14.55,2.23-1.89c.07-.06,5.76-4.87,14.03-11.16-.11,7.13-.26,12.31-.32,14.05l-.1,2.83-.31,3.2h19.05l.17-2.71c0-.14,.82-13.8,.27-30.72,5.24-3.46,10.13-6.42,14.61-8.86,2.37,6.11,6.73,13.06,7.08,13.59,.94,1.23,1.92,2.21,3.01,3.02,2.96,2.21,8.14,4.24,16.13,1.3,13.52-5.49,16.78-16.77,14.03-25.52Zm-18.25,14.88c-2.36,.85-4.07,.9-5.06,.16-1.51-1.12-3.39-4.37-4.18-13.34,7.05-2.55,12.22-2.93,15.07-1.08,.68,.89,1.18,1.83,1.49,2.83,1.45,4.6-1.35,8.97-7.32,11.43Z" style="fill:#f9a000;"/></g></svg>