<?xml version="1.0" encoding="UTF-8"?><svg id="b" xmlns="http://www.w3.org/2000/svg" viewBox="0 0 160.96 52.38"><g id="c"><g><g><path d="M69.2,36.2h-6.55v-2.29c-1.48,1.9-3.52,2.85-6.09,2.85-2.81,0-5.15-1.08-7.03-3.23-1.88-2.15-2.82-4.81-2.82-7.96,0-2.06,.43-3.94,1.27-5.64,.85-1.7,2.03-3.04,3.54-4.03,1.51-.99,3.2-1.48,5.06-1.48,2.58,0,4.6,.96,6.07,2.87v-2.29h6.55v21.2Zm-11.02-15.47c-1.34,0-2.43,.46-3.26,1.38s-1.25,2.08-1.25,3.48,.42,2.56,1.25,3.48c.84,.92,1.92,1.38,3.26,1.38s2.41-.46,3.26-1.37c.85-.91,1.27-2.08,1.27-3.49s-.43-2.57-1.27-3.49c-.85-.92-1.94-1.37-3.26-1.37Z"/><path d="M72.25,5.59c.78-.78,1.74-1.17,2.87-1.17s2.1,.39,2.87,1.18c.78,.79,1.17,1.75,1.17,2.88s-.39,2.07-1.17,2.85c-.78,.78-1.74,1.17-2.87,1.17s-2.1-.39-2.87-1.17c-.78-.78-1.17-1.73-1.17-2.85s.39-2.12,1.17-2.9Zm6.29,30.62h-6.76V15.01h6.76v21.2Z"/><path d="M93.38,14.43c.85,0,1.64,.11,2.38,.32l-.63,6.74c-1.08-.37-2.21-.56-3.39-.56-2.58,0-3.87,1.27-3.87,3.82v11.45h-6.76V15.01h6.48v2.44c1.2-2.02,3.13-3.03,5.79-3.03Z"/><path d="M112.2,21.53c-2.62-1.09-4.95-1.64-6.98-1.64-1.64,0-2.46,.43-2.46,1.3,0,.27,.14,.5,.42,.68,.28,.18,.64,.32,1.08,.42,.44,.1,1.01,.21,1.72,.32,.09,.01,.15,.02,.19,.02l1.56,.24c4.62,.71,6.94,2.85,6.94,6.44,0,2.33-.86,4.16-2.59,5.47-1.73,1.31-4.13,1.97-7.22,1.97-4.22,0-7.48-.74-9.79-2.23l2.36-5.23c2.22,1.33,4.71,1.99,7.48,1.99,1.97,0,2.96-.46,2.96-1.38,0-.39-.25-.69-.75-.91-.5-.22-1.37-.42-2.6-.61l-1.23-.17c-2.56-.37-4.45-1.1-5.66-2.18-1.21-1.08-1.81-2.58-1.81-4.49,0-2.25,.8-3.99,2.41-5.23,1.61-1.24,3.86-1.86,6.75-1.86,1.7,0,3.2,.13,4.5,.4,1.3,.27,2.84,.74,4.61,1.42l-1.88,5.27Z"/><path d="M128.66,14.43c2.81,0,5.16,1.08,7.04,3.23,1.89,2.15,2.83,4.79,2.83,7.92,0,2.07-.43,3.97-1.28,5.67-.85,1.71-2.03,3.05-3.54,4.04-1.51,.99-3.2,1.48-5.06,1.48-2.58,0-4.6-.94-6.07-2.83v2.27h-6.52V5.09h6.74v11.95c1.45-1.74,3.41-2.61,5.86-2.61Zm-1.62,6.31c-1.33,0-2.41,.46-3.25,1.37-.84,.91-1.26,2.08-1.26,3.49s.42,2.57,1.26,3.49c.84,.91,1.93,1.37,3.25,1.37s2.43-.46,3.27-1.38c.84-.92,1.26-2.08,1.26-3.48s-.42-2.56-1.26-3.48-1.93-1.38-3.27-1.38Z"/><path d="M145.32,44.89h-7.39l7.26-13.35-8.92-16.53h7.76l4.82,9.53,4.73-9.53h7.39l-15.64,29.88Z"/></g><path d="M50.43,28.88c-1.4-4.42-6.24-8.1-13.05-7.25,.09-2.69,.27-5.47,.42-7.98,.14-2.2,.27-4.31,.35-6.33,0-1.05,2.1-3.15,3.61-4.26l1.03-.76-1.47-2.3-12.58,3.63,.77,2.86,.97-.08c.09,.03,.26,.09,.57,.21-.6,3.56-1.54,10.48-1.12,17.3-1.84,.82-3.85,1.84-5.99,3.06-1.05-9.94-3.17-16.83-6.28-20.42-1.68-2.22-4.13-3.44-6.75-3.36C5.9,3.37,.44,8.44,.02,16.58c-.23,4.42,1.61,6.57,3.2,7.61,2.4,1.56,5.56,1.45,8.39,.82v-5.61c-2.21,.64-4.45,.92-5.45,.27-.75-.49-.79-1.96-.74-2.8,.28-5.27,3.5-8.2,5.82-8.28,1.83,0,3.19,2.09,3.63,5.59,.11,.89,.22,1.86,.31,2.92,.03,.29,.05,.6,.07,.91,0,0-.01,0-.01,0,.09,1.42,.26,4.14,.35,5.74,0,0,0,0,.01,0,.01,.25,.02,.49,.03,.74,0,.12,0,.22,.01,.3v.02c.09,2.25,.14,4.69,.17,7.31-6.23,4.26-11.04,8.22-11.25,8.39l-2.08,1.72,5.64,6.85,1.05-.89s2.71-2.29,6.61-5.26c-.05,3.36-.12,5.8-.15,6.61l-.05,1.33-.15,1.5h8.97l.08-1.28c0-.07,.39-6.5,.13-14.47,2.47-1.63,4.77-3.02,6.88-4.17,1.12,2.88,3.17,6.15,3.33,6.4,.44,.58,.91,1.04,1.42,1.42,1.39,1.04,3.83,2,7.6,.61,6.36-2.58,7.9-7.9,6.61-12.02Zm-8.6,7.01c-1.11,.4-1.91,.42-2.38,.07-.71-.53-1.6-2.06-1.97-6.28,3.32-1.2,5.75-1.38,7.09-.51,.32,.42,.56,.86,.7,1.33,.68,2.16-.64,4.22-3.45,5.38Z" style="fill:#f9a000;"/></g></g></svg>